# xmcd
#
# Track frame offsets: 
#        150
#        26267
#        46187
#
# Disc length: 962 seconds
#
# Revision: 0
# Processed by: cddbd v1.5.2PL0 Copyright (c) Steve Scherf et al.
# Submitted via: ExactAudioCopy v1.3
#
DISCID=1603c003
DTITLE=藤井フミヤ - エンジェル
DYEAR=1994
DGENRE=Jpop
TTITLE0=エンジェル
TTITLE1=Pink Champagne
TTITLE2=エンジェル（カラオケ）
EXTD=
EXTT0=
EXTT1=
EXTT2=
PLAYORDER=
